<?xml version="1.0" standalone="no"?>
<!DOCTYPE svg PUBLIC "-//W3C//DTD SVG 20010904//EN"
 "http://www.w3.org/TR/2001/REC-SVG-20010904/DTD/svg10.dtd">
<svg version="1.0" xmlns="http://www.w3.org/2000/svg"
 width="1024.000000pt" height="8494.000000pt" viewBox="0 0 1024.000000 8494.000000"
 preserveAspectRatio="xMidYMid meet">
<metadata>
Created by potrace 1.15, written by Peter Selinger 2001-2017
</metadata>
<g transform="translate(0.000000,8494.000000) scale(0.100000,-0.100000)"
fill="#000000" stroke="none">
<path d="M0 84590 l0 -350 5120 0 5120 0 0 350 0 350 -5120 0 -5120 0 0 -350z"/>
<path d="M3490 83335 c0 -33 -2 -35 -20 -25 -44 24 -89 -21 -76 -74 9 -35 41
-51 74 -37 20 10 27 9 33 -1 16 -26 24 8 21 90 -3 63 -7 82 -18 82 -9 0 -14
-11 -14 -35z"/>
<path d="M1600 83230 c0 -73 3 -90 15 -90 11 0 15 11 15 35 0 33 2 35 20 25
48 -26 92 27 69 82 -13 32 -40 43 -69 28 -13 -7 -20 -7 -20 0 0 5 -7 10 -15
10 -12 0 -15 -17 -15 -90z"/>
<path d="M4402 83304 c-33 -22 -30 -78 4 -101 21 -14 29 -14 46 -4 23 14 31
10 22 -12 -8 -22 -39 -30 -63 -18 -12 7 -22 7 -26 2 -7 -12 26 -31 52 -31 10
0 29 7 41 16 19 13 22 24 22 90 0 43 -4 74 -10 74 -5 0 -10 -5 -10 -10 0 -7
-6 -7 -19 0 -26 13 -33 13 -59 -6z"/>
<path d="M670 83025 c0 -36 -8 -43 -27 -24 -16 16 -52 1 -65 -26 -24 -53 20
-108 68 -86 15 6 25 7 29 1 17 -27 25 -1 25 80 0 73 -3 90 -15 90 -10 0 -15
-11 -15 -35z"/>
<path d="M7100 74565 l0 -305 90 0 c66 0 90 3 90 13 0 13 60 71 60 59 1 -18
20 26 20 46 0 26 -12 28 -34 7 -8 -9 -17 -11 -21 -6 -3 6 -12 8 -20 4 -16 -5
-19 5 -9 31 3 8 13 12 22 9 13 -4 14 -3 4 5 -9 6 -12 21 -8 46 3 20 8 52 11
71 3 19 10 35 15 35 5 0 6 -15 3 -34 -4 -28 -2 -35 13 -38 11 -3 30 1 45 8 24
12 25 11 23 -18 -2 -33 9 -75 20 -70 24 9 36 -1 36 -30 0 -17 3 -28 7 -24 8 8
13 39 13 88 0 25 11 51 35 85 19 26 43 60 52 75 10 16 20 28 23 28 3 0 18 -25
33 -56 28 -56 28 -56 7 -71 -11 -8 -20 -19 -20 -25 0 -5 -17 -29 -38 -53 -36
-41 -62 -108 -62 -160 l0 -25 120 0 120 0 0 305 0 305 -325 0 -325 0 0 -305z"/>
<path d="M7215 73450 c-3 -6 -3 -19 0 -30 4 -11 3 -44 0 -74 -7 -52 -8 -53
-36 -50 -17 2 -38 8 -49 14 -10 5 -21 10 -24 10 -3 0 -5 -68 -5 -151 l-1 -151
22 7 c13 3 34 9 48 11 23 5 24 4 7 -9 -14 -12 -15 -16 -5 -21 7 -3 -4 -4 -25
-2 -22 3 -35 1 -32 -5 4 -5 0 -9 -7 -9 -8 -1 -6 -6 6 -15 11 -8 28 -13 37 -10
10 3 20 2 23 -4 7 -11 -22 -24 -35 -15 -5 3 -9 1 -9 -5 0 -6 11 -13 25 -17 14
-3 25 -10 25 -15 0 -5 63 -9 140 -9 133 0 140 1 140 20 0 14 7 20 23 20 54 0
67 10 67 52 0 21 -8 55 -19 76 -10 20 -16 43 -14 50 3 6 0 12 -6 12 -6 0 -11
7 -11 15 0 8 7 15 16 15 8 0 13 4 9 9 -3 5 -1 12 5 16 6 4 8 11 5 16 -11 17
17 9 72 -21 37 -21 62 -28 79 -24 14 4 24 2 24 -5 0 -6 -4 -11 -10 -11 -5 0
-10 -5 -10 -11 0 -16 41 -50 51 -43 14 8 11 72 -3 77 -10 4 -10 6 0 6 8 1 12
24 12 83 l0 82 -27 -26 c-34 -32 -89 -48 -167 -48 -95 0 -59 -9 44 -11 103 -1
140 -7 140 -19 0 -17 -33 -18 -106 -5 -86 17 -234 20 -234 5 0 -5 15 -17 33
-27 l32 -17 -25 -7 c-17 -5 -19 -7 -7 -8 13 -1 17 -6 12 -20 -3 -10 -1 -29 4
-42 43 -112 36 -159 -26 -159 -38 0 -53 21 -32 47 12 14 12 16 0 8 -11 -6 -13
-1 -7 26 6 33 -6 149 -20 197 -6 21 -4 22 62 22 54 1 65 3 51 11 -10 6 -44 9
-75 6 -53 -4 -59 -2 -95 29 -43 39 -57 42 -57 14 0 -11 -4 -20 -10 -20 -16 0
-12 103 6 128 8 12 12 27 9 32 -8 13 -32 13 -40 0z"/>
<path d="M7100 72243 c0 -87 3 -123 10 -113 8 13 10 12 10 -4 0 -18 1 -18 18
-3 10 10 25 17 33 17 8 0 5 -6 -9 -16 -12 -8 -31 -34 -42 -56 -23 -47 -27
-133 -7 -141 10 -4 10 -6 0 -6 -9 -1 -13 -24 -13 -81 l0 -80 325 0 325 0 0 86
c0 76 -2 85 -15 74 -9 -7 -19 -10 -22 -6 -4 4 -1 11 7 16 12 7 12 12 3 21 -10
10 -18 8 -36 -9 -27 -26 -52 -28 -61 -7 -5 14 -8 14 -29 0 -13 -8 -31 -13 -39
-10 -8 3 -21 -1 -28 -10 -15 -18 -37 -20 -42 -3 -3 7 -13 5 -31 -7 -20 -13
-25 -23 -21 -40 4 -15 0 -24 -12 -29 -9 -4 -20 -3 -23 0 -3 4 -1 9 6 11 13 5
6 34 -11 45 -5 4 -22 4 -37 1 -21 -4 -28 -1 -34 16 -9 28 -19 26 -41 -6 -10
-16 -19 -22 -22 -15 -3 9 -11 8 -33 -4 -16 -8 -34 -12 -39 -9 -5 3 -20 -1 -33
-10 -43 -28 -51 7 -11 54 33 40 54 40 54 1 0 -18 5 -30 13 -30 16 0 47 32 47
48 0 7 4 12 10 12 5 0 7 -7 4 -15 -9 -22 5 -18 25 7 20 24 41 17 41 -13 0 -32
28 -21 55 21 14 23 30 38 35 35 14 -9 12 -35 -2 -32 -8 1 -14 -10 -16 -25 -2
-16 1 -28 7 -28 16 0 79 59 86 81 4 12 15 19 31 19 20 0 24 -5 24 -31 0 -23 4
-30 16 -27 17 3 28 18 38 51 8 26 26 11 26 -23 0 -16 4 -31 9 -35 11 -6 47 41
52 68 5 23 23 18 24 -6 1 -10 7 -23 13 -29 9 -9 12 14 12 95 0 88 -3 107 -15
107 -8 0 -15 -6 -15 -12 0 -7 -5 -5 -11 5 -13 22 -26 22 -39 -3 -15 -28 -4
-43 21 -30 12 7 19 7 19 1 0 -12 -37 -24 -50 -16 -5 3 -10 13 -10 21 0 19 -29
18 -35 -1 -16 -51 -16 -51 -35 -15 -11 19 -19 40 -19 45 0 6 7 -3 16 -20 l16
-30 10 28 c5 17 14 26 22 23 7 -2 21 2 32 9 12 9 31 12 56 8 l37 -6 0 97 0 96
-325 0 -325 0 0 -127z"/>
<path d="M7100 70866 c0 -66 4 -117 10 -121 6 -3 10 -19 10 -35 0 -16 -4 -32
-10 -35 -6 -4 -10 -62 -10 -141 l0 -134 324 0 324 0 1 290 1 290 -325 0 -325
0 0 -114z"/>
<path d="M7100 69639 c0 -8 22 -9 73 -5 43 4 78 2 87 -4 13 -8 12 -10 -3 -10
-9 0 -44 -7 -76 -16 -45 -13 -58 -20 -54 -32 4 -8 -1 -19 -10 -24 -21 -11 -25
-133 -4 -141 10 -4 10 -6 0 -6 -10 -1 -13 -32 -13 -121 l0 -121 28 15 c29 15
110 68 153 101 l26 20 -48 32 c-42 29 -49 38 -54 77 -7 43 -8 44 -44 43 -26
-2 -36 2 -36 13 0 9 10 15 25 16 58 2 61 3 49 22 -8 12 -20 17 -34 14 -35 -6
-38 14 -8 45 25 25 36 28 118 33 78 5 87 8 65 17 -16 8 -19 12 -9 12 9 1 22 8
29 16 11 13 -4 15 -124 15 -93 0 -136 -3 -136 -11z"/>
<path d="M7332 69263 c5 -26 -19 -67 -56 -91 -62 -42 -134 -74 -147 -66 -8 5
-9 3 -4 -6 6 -10 4 -12 -8 -7 -14 5 -17 0 -17 -23 l0 -30 245 0 245 0 -16 25
c-15 23 -15 25 1 25 22 0 12 8 -132 109 -102 70 -115 78 -111 64z"/>
<path d="M7255 63637 c-3 -7 -4 -114 -3 -237 l3 -225 1205 0 1205 0 0 235 0
235 -1203 3 c-968 2 -1204 0 -1207 -11z"/>
<path d="M6950 60690 l0 -1510 1510 0 1510 0 0 1510 0 1510 -1510 0 -1510 0 0
-1510z"/>
<path d="M6950 55810 l0 -1510 1510 0 1510 0 0 1510 0 1510 -1510 0 -1510 0 0
-1510z"/>
<path d="M1159 52801 c13 -12 22 -23 20 -24 -2 -1 -12 -9 -21 -16 -15 -11 -22
-10 -47 8 -27 20 -30 20 -42 3 -12 -15 -12 -16 2 -5 26 20 43 -5 22 -31 -10
-12 -11 -15 -3 -8 8 6 21 12 30 12 11 -1 9 -6 -8 -20 -23 -19 -23 -19 -45 3
-20 20 -22 20 -25 4 -2 -10 1 -24 7 -31 12 -14 5 -26 -16 -26 -8 0 -11 4 -8
10 6 10 -15 5 -52 -12 -28 -14 -38 -38 -16 -38 9 0 14 3 10 6 -8 8 16 33 26
27 14 -8 7 -19 -23 -36 -35 -21 -37 -34 -10 -106 29 -79 47 -103 72 -95 16 5
20 3 15 -9 -3 -9 2 -21 10 -29 14 -11 16 -11 11 3 -7 18 9 39 29 39 7 0 13
-11 13 -26 0 -23 4 -26 25 -22 13 3 26 1 28 -5 2 -6 12 -5 26 2 16 9 20 16 13
23 -7 7 -8 17 -3 27 5 9 8 19 8 24 -2 9 50 37 69 37 7 0 30 -15 51 -32 l38
-33 -29 35 c-16 19 -39 41 -52 48 -13 7 -24 21 -24 30 0 23 -19 42 -43 42 -12
0 -17 6 -15 17 5 26 24 26 51 -1 21 -21 30 -24 54 -17 42 12 96 41 89 49 -4 3
-12 0 -18 -6 -7 -7 -19 -12 -27 -12 -11 0 -9 6 7 21 12 11 27 17 34 13 6 -4 8
-3 4 4 -3 6 1 17 9 25 16 17 21 52 6 43 -13 -8 -42 4 -36 14 3 5 1 11 -5 15
-5 3 -10 1 -10 -6 0 -7 -8 -5 -19 7 -12 12 -15 23 -9 31 5 7 5 13 0 17 -6 3
-12 -1 -16 -9 -6 -17 -42 -20 -51 -5 -10 17 -25 11 -25 -10 0 -11 -5 -20 -11
-20 -5 0 -7 -5 -3 -12 5 -8 2 -9 -10 -5 -10 4 -20 7 -22 7 -2 0 5 9 16 20 11
11 20 30 20 42 0 20 -1 20 -19 4 -18 -17 -21 -17 -48 -1 l-28 17 24 -21z"/>
<path d="M6950 50880 l0 -1510 1510 0 1510 0 0 1510 0 1510 -1510 0 -1510 0 0
-1510z m2870 1240 l0 -120 -430 0 -430 0 0 120 0 120 430 0 430 0 0 -120z"/>
<path d="M1159 46121 c13 -12 22 -23 20 -24 -2 -1 -12 -9 -21 -16 -15 -11 -22
-10 -47 8 -27 20 -30 20 -42 3 -12 -15 -12 -16 2 -5 26 20 43 -5 22 -31 -10
-12 -11 -15 -3 -8 8 6 21 12 30 12 11 -1 9 -6 -8 -20 -23 -19 -23 -19 -45 3
-20 20 -22 20 -25 4 -2 -10 1 -24 7 -31 12 -14 5 -26 -16 -26 -8 0 -11 4 -8
10 6 10 -15 5 -52 -12 -28 -14 -38 -38 -16 -38 9 0 14 3 10 6 -8 8 16 33 26
27 14 -8 7 -19 -23 -36 -35 -21 -37 -34 -10 -106 29 -79 47 -103 72 -95 16 5
20 3 15 -9 -3 -9 2 -21 10 -29 14 -11 16 -11 11 3 -7 18 9 39 29 39 7 0 13
-11 13 -26 0 -23 4 -26 25 -22 13 3 26 1 28 -5 2 -6 12 -5 26 2 16 9 20 16 13
23 -7 7 -8 17 -3 27 5 9 8 19 8 24 -2 9 50 37 69 37 7 0 30 -15 51 -32 l38
-33 -29 35 c-16 19 -39 41 -52 48 -13 7 -24 21 -24 30 0 23 -19 42 -43 42 -12
0 -17 6 -15 17 5 26 24 26 51 -1 21 -21 30 -24 54 -17 42 12 96 41 89 49 -4 3
-12 0 -18 -6 -7 -7 -19 -12 -27 -12 -11 0 -9 6 7 21 12 11 27 17 34 13 6 -4 8
-3 4 4 -3 6 1 17 9 25 16 17 21 52 6 43 -13 -8 -42 4 -36 14 3 5 1 11 -5 15
-5 3 -10 1 -10 -6 0 -7 -8 -5 -19 7 -12 12 -15 23 -9 31 5 7 5 13 0 17 -6 3
-12 -1 -16 -9 -6 -17 -42 -20 -51 -5 -10 17 -25 11 -25 -10 0 -11 -5 -20 -11
-20 -5 0 -7 -5 -3 -12 5 -8 2 -9 -10 -5 -10 4 -20 7 -22 7 -2 0 5 9 16 20 11
11 20 30 20 42 0 20 -1 20 -19 4 -18 -17 -21 -17 -48 -1 l-28 17 24 -21z"/>
<path d="M1159 39291 c13 -12 22 -23 20 -24 -2 -1 -12 -9 -21 -16 -15 -11 -22
-10 -47 8 -27 20 -30 20 -42 3 -12 -15 -12 -16 2 -5 26 20 43 -5 22 -31 -10
-12 -11 -15 -3 -8 8 6 21 12 30 12 11 -1 9 -6 -8 -20 -23 -19 -23 -19 -45 3
-20 20 -22 20 -25 4 -2 -10 1 -24 7 -31 12 -14 5 -26 -16 -26 -8 0 -11 4 -8
10 6 10 -15 5 -52 -12 -28 -14 -38 -38 -16 -38 9 0 14 3 10 6 -8 8 16 33 26
27 14 -8 7 -19 -23 -36 -35 -21 -37 -34 -10 -106 29 -79 47 -103 72 -95 16 5
20 3 15 -9 -3 -9 2 -21 10 -29 14 -11 16 -11 11 3 -7 18 9 39 29 39 7 0 13
-11 13 -26 0 -23 4 -26 25 -22 13 3 26 1 28 -5 2 -6 12 -5 26 2 16 9 20 16 13
23 -7 7 -8 17 -3 27 5 9 8 19 8 24 -2 9 50 37 69 37 7 0 30 -15 51 -32 l38
-33 -29 35 c-16 19 -39 41 -52 48 -13 7 -24 21 -24 30 0 23 -19 42 -43 42 -12
0 -17 6 -15 17 5 26 24 26 51 -1 21 -21 30 -24 54 -17 42 12 96 41 89 49 -4 3
-12 0 -18 -6 -7 -7 -19 -12 -27 -12 -11 0 -9 6 7 21 12 11 27 17 34 13 6 -4 8
-3 4 4 -3 6 1 17 9 25 16 17 21 52 6 43 -13 -8 -42 4 -36 14 3 5 1 11 -5 15
-5 3 -10 1 -10 -6 0 -7 -8 -5 -19 7 -12 12 -15 23 -9 31 5 7 5 13 0 17 -6 3
-12 -1 -16 -9 -6 -17 -42 -20 -51 -5 -10 17 -25 11 -25 -10 0 -11 -5 -20 -11
-20 -5 0 -7 -5 -3 -12 5 -8 2 -9 -10 -5 -10 4 -20 7 -22 7 -2 0 5 9 16 20 11
11 20 30 20 42 0 20 -1 20 -19 4 -18 -17 -21 -17 -48 -1 l-28 17 24 -21z"/>
<path d="M1159 33811 c13 -12 22 -23 20 -24 -2 -1 -12 -9 -21 -16 -15 -11 -22
-10 -47 8 -27 20 -30 20 -42 3 -12 -15 -12 -16 2 -5 26 20 43 -5 22 -31 -10
-12 -11 -15 -3 -8 8 6 21 12 30 12 11 -1 9 -6 -8 -20 -23 -19 -23 -19 -45 3
-20 20 -22 20 -25 4 -2 -10 1 -24 7 -31 12 -14 5 -26 -16 -26 -8 0 -11 4 -8
10 6 10 -15 5 -52 -12 -28 -14 -38 -38 -16 -38 9 0 14 3 10 6 -8 8 16 33 26
27 14 -8 7 -19 -23 -36 -35 -21 -37 -34 -10 -106 29 -79 47 -103 72 -95 16 5
20 3 15 -9 -3 -9 2 -21 10 -29 14 -11 16 -11 11 3 -7 18 9 39 29 39 7 0 13
-11 13 -26 0 -23 4 -26 25 -22 13 3 26 1 28 -5 2 -6 12 -5 26 2 16 9 20 16 13
23 -7 7 -8 17 -3 27 5 9 8 19 8 24 -2 9 50 37 69 37 7 0 30 -15 51 -32 l38
-33 -29 35 c-16 19 -39 41 -52 48 -13 7 -24 21 -24 30 0 23 -19 42 -43 42 -12
0 -17 6 -15 17 5 26 24 26 51 -1 21 -21 30 -24 54 -17 42 12 96 41 89 49 -4 3
-12 0 -18 -6 -7 -7 -19 -12 -27 -12 -11 0 -9 6 7 21 12 11 27 17 34 13 6 -4 8
-3 4 4 -3 6 1 17 9 25 16 17 21 52 6 43 -13 -8 -42 4 -36 14 3 5 1 11 -5 15
-5 3 -10 1 -10 -6 0 -7 -8 -5 -19 7 -12 12 -15 23 -9 31 5 7 5 13 0 17 -6 3
-12 -1 -16 -9 -6 -17 -42 -20 -51 -5 -10 17 -25 11 -25 -10 0 -11 -5 -20 -11
-20 -5 0 -7 -5 -3 -12 5 -8 2 -9 -10 -5 -10 4 -20 7 -22 7 -2 0 5 9 16 20 11
11 20 30 20 42 0 20 -1 20 -19 4 -18 -17 -21 -17 -48 -1 l-28 17 24 -21z"/>
<path d="M1159 28571 c13 -12 22 -23 20 -24 -2 -1 -12 -9 -21 -16 -15 -11 -22
-10 -47 8 -27 20 -30 20 -42 3 -12 -15 -12 -16 2 -5 26 20 43 -5 22 -31 -10
-12 -11 -15 -3 -8 8 6 21 12 30 12 11 -1 9 -6 -8 -20 -23 -19 -23 -19 -45 3
-20 20 -22 20 -25 4 -2 -10 1 -24 7 -31 12 -14 5 -26 -16 -26 -8 0 -11 4 -8
10 6 10 -15 5 -52 -12 -28 -14 -38 -38 -16 -38 9 0 14 3 10 6 -8 8 16 33 26
27 14 -8 7 -19 -23 -36 -35 -21 -37 -34 -10 -106 29 -79 47 -103 72 -95 16 5
20 3 15 -9 -3 -9 2 -21 10 -29 14 -11 16 -11 11 3 -7 18 9 39 29 39 7 0 13
-11 13 -26 0 -23 4 -26 25 -22 13 3 26 1 28 -5 2 -6 12 -5 26 2 16 9 20 16 13
23 -7 7 -8 17 -3 27 5 9 8 19 8 24 -2 9 50 37 69 37 7 0 30 -15 51 -32 l38
-33 -29 35 c-16 19 -39 41 -52 48 -13 7 -24 21 -24 30 0 23 -19 42 -43 42 -12
0 -17 6 -15 17 5 26 24 26 51 -1 21 -21 30 -24 54 -17 42 12 96 41 89 49 -4 3
-12 0 -18 -6 -7 -7 -19 -12 -27 -12 -11 0 -9 6 7 21 12 11 27 17 34 13 6 -4 8
-3 4 4 -3 6 1 17 9 25 16 17 21 52 6 43 -13 -8 -42 4 -36 14 3 5 1 11 -5 15
-5 3 -10 1 -10 -6 0 -7 -8 -5 -19 7 -12 12 -15 23 -9 31 5 7 5 13 0 17 -6 3
-12 -1 -16 -9 -6 -17 -42 -20 -51 -5 -10 17 -25 11 -25 -10 0 -11 -5 -20 -11
-20 -5 0 -7 -5 -3 -12 5 -8 2 -9 -10 -5 -10 4 -20 7 -22 7 -2 0 5 9 16 20 11
11 20 30 20 42 0 20 -1 20 -19 4 -18 -17 -21 -17 -48 -1 l-28 17 24 -21z"/>
<path d="M1159 21891 c13 -12 22 -23 20 -24 -2 -1 -12 -9 -21 -16 -15 -11 -22
-10 -47 8 -27 20 -30 20 -42 3 -12 -15 -12 -16 2 -5 26 20 43 -5 22 -31 -10
-12 -11 -15 -3 -8 8 6 21 12 30 12 11 -1 9 -6 -8 -20 -23 -19 -23 -19 -45 3
-20 20 -22 20 -25 4 -2 -10 1 -24 7 -31 12 -14 5 -26 -16 -26 -8 0 -11 4 -8
10 6 10 -15 5 -52 -12 -28 -14 -38 -38 -16 -38 9 0 14 3 10 6 -8 8 16 33 26
27 14 -8 7 -19 -23 -36 -35 -21 -37 -34 -10 -106 29 -79 47 -103 72 -95 16 5
20 3 15 -9 -3 -9 2 -21 10 -29 14 -11 16 -11 11 3 -7 18 9 39 29 39 7 0 13
-11 13 -26 0 -23 4 -26 25 -22 13 3 26 1 28 -5 2 -6 12 -5 26 2 16 9 20 16 13
23 -7 7 -8 17 -3 27 5 9 8 19 8 24 -2 9 50 37 69 37 7 0 30 -15 51 -32 l38
-33 -29 35 c-16 19 -39 41 -52 48 -13 7 -24 21 -24 30 0 23 -19 42 -43 42 -12
0 -17 6 -15 17 5 26 24 26 51 -1 21 -21 30 -24 54 -17 42 12 96 41 89 49 -4 3
-12 0 -18 -6 -7 -7 -19 -12 -27 -12 -11 0 -9 6 7 21 12 11 27 17 34 13 6 -4 8
-3 4 4 -3 6 1 17 9 25 16 17 21 52 6 43 -13 -8 -42 4 -36 14 3 5 1 11 -5 15
-5 3 -10 1 -10 -6 0 -7 -8 -5 -19 7 -12 12 -15 23 -9 31 5 7 5 13 0 17 -6 3
-12 -1 -16 -9 -6 -17 -42 -20 -51 -5 -10 17 -25 11 -25 -10 0 -11 -5 -20 -11
-20 -5 0 -7 -5 -3 -12 5 -8 2 -9 -10 -5 -10 4 -20 7 -22 7 -2 0 5 9 16 20 11
11 20 30 20 42 0 20 -1 20 -19 4 -18 -17 -21 -17 -48 -1 l-28 17 24 -21z"/>
<path d="M1159 14581 c13 -12 22 -23 20 -24 -2 -1 -12 -9 -21 -16 -15 -11 -22
-10 -47 8 -27 20 -30 20 -42 3 -12 -15 -12 -16 2 -5 26 20 43 -5 22 -31 -10
-12 -11 -15 -3 -8 8 6 21 12 30 12 11 -1 9 -6 -8 -20 -23 -19 -23 -19 -45 3
-20 20 -22 20 -25 4 -2 -10 1 -24 7 -31 12 -14 5 -26 -16 -26 -8 0 -11 4 -8
10 6 10 -15 5 -52 -12 -28 -14 -38 -38 -16 -38 9 0 14 3 10 6 -8 8 16 33 26
27 14 -8 7 -19 -23 -36 -35 -21 -37 -34 -10 -106 29 -79 47 -103 72 -95 16 5
20 3 15 -9 -3 -9 2 -21 10 -29 14 -11 16 -11 11 3 -7 18 9 39 29 39 7 0 13
-11 13 -26 0 -23 4 -26 25 -22 13 3 26 1 28 -5 2 -6 12 -5 26 2 16 9 20 16 13
23 -7 7 -8 17 -3 27 5 9 8 19 8 24 -2 9 50 37 69 37 7 0 30 -15 51 -32 l38
-33 -29 35 c-16 19 -39 41 -52 48 -13 7 -24 21 -24 30 0 23 -19 42 -43 42 -12
0 -17 6 -15 17 5 26 24 26 51 -1 21 -21 30 -24 54 -17 42 12 96 41 89 49 -4 3
-12 0 -18 -6 -7 -7 -19 -12 -27 -12 -11 0 -9 6 7 21 12 11 27 17 34 13 6 -4 8
-3 4 4 -3 6 1 17 9 25 16 17 21 52 6 43 -13 -8 -42 4 -36 14 3 5 1 11 -5 15
-5 3 -10 1 -10 -6 0 -7 -8 -5 -19 7 -12 12 -15 23 -9 31 5 7 5 13 0 17 -6 3
-12 -1 -16 -9 -6 -17 -42 -20 -51 -5 -10 17 -25 11 -25 -10 0 -11 -5 -20 -11
-20 -5 0 -7 -5 -3 -12 5 -8 2 -9 -10 -5 -10 4 -20 7 -22 7 -2 0 5 9 16 20 11
11 20 30 20 42 0 20 -1 20 -19 4 -18 -17 -21 -17 -48 -1 l-28 17 24 -21z"/>
<path d="M0 3265 l0 -3255 5120 0 5120 0 0 3255 0 3255 -5120 0 -5120 0 0
-3255z m2738 2523 c7 -7 12 -30 12 -53 0 -53 -13 -65 -70 -65 -56 0 -70 12
-70 61 0 62 6 69 64 69 29 0 57 -5 64 -12z m552 -758 l0 -220 -1520 0 -1520 0
0 220 0 220 1520 0 1520 0 0 -220z"/>
</g>
</svg>
